<?xml version="1.0" encoding="UTF-8" standalone="no"?>
<svg
   xmlns:dc="http://purl.org/dc/elements/1.1/"
   xmlns:cc="http://creativecommons.org/ns#"
   xmlns:rdf="http://www.w3.org/1999/02/22-rdf-syntax-ns#"
   xmlns:svg="http://www.w3.org/2000/svg"
   xmlns="http://www.w3.org/2000/svg"
   version="1.1"
   id="svg3995"
   viewBox="0 0 63.000001 70.500001"
   height="70.5"
   width="63">
  <defs
     id="defs3997" />
  <metadata
     id="metadata4000">
    <rdf:RDF>
      <cc:Work
         rdf:about="">
        <dc:format>image/svg+xml</dc:format>
        <dc:type
           rdf:resource="http://purl.org/dc/dcmitype/StillImage" />
        <dc:title></dc:title>
      </cc:Work>
    </rdf:RDF>
  </metadata>
  <g
     transform="translate(0,-981.86216)"
     id="layer1">
    <g
       transform="translate(-701.116,686.1282)"
       id="g441">
      <g
         id="g443">
        <path
           style="fill:#16813d"
           id="path445"
           d="m 744.663,295.604 19.454,0 -29.968,50.5 c -1.712,2.814 -3.382,4.98 -5.009,6.498 -1.629,1.519 -3.133,2.622 -4.512,3.312 -1.38,0.69 -2.566,1.091 -3.56,1.2 -0.993,0.111 -1.685,0.166 -2.069,0.166 l -17.883,0 0,-43.628 16.724,0 0.083,29.968 26.74,-48.016 z" />
      </g>
      <g
         id="g447">
        <path
           style="fill:#16813d"
           id="path449"
           d="m 707.385,362.856 c 0.027,-0.189 -0.006,-0.32 -0.1,-0.392 l 0.005,0 c -0.087,-0.065 -0.212,-0.098 -0.376,-0.098 l -3.109,0 c -0.186,0 -0.358,0.041 -0.517,0.128 -0.14,0.071 -0.228,0.158 -0.264,0.257 l -0.329,0.907 2.294,0 -0.231,0.636 -2.295,0 -0.705,1.938 -0.641,0 1.268,-3.481 c 0.104,-0.283 0.32,-0.528 0.648,-0.731 0.318,-0.195 0.654,-0.294 1.004,-0.294 l 3.109,0 c 0.33,0 0.574,0.093 0.736,0.272 0.177,0.183 0.227,0.47 0.147,0.857 l -0.644,0 0,10e-4 z" />
        <path
           style="fill:#16813d"
           id="path451"
           d="m 711.976,364.073 c 0.013,-0.18 -0.042,-0.302 -0.161,-0.366 -0.045,-0.027 -0.096,-0.048 -0.152,-0.059 -0.057,-0.009 -0.116,-0.015 -0.178,-0.015 l -1.501,0 c -0.151,0 -0.301,0.03 -0.45,0.089 -0.171,0.064 -0.273,0.147 -0.311,0.246 l -0.824,2.265 -0.64,0 1.177,-3.234 0.641,0 -0.049,0.135 c 0.126,-0.048 0.244,-0.082 0.354,-0.103 0.109,-0.021 0.219,-0.032 0.328,-0.032 l 1.506,0 c 0.286,0 0.519,0.073 0.7,0.217 0.218,0.177 0.282,0.461 0.194,0.857 l -0.634,0 z" />
        <path
           style="fill:#16813d"
           id="path453"
           d="m 717.667,363.959 c -0.108,0.3 -0.347,0.545 -0.712,0.737 -0.301,0.159 -0.607,0.236 -0.916,0.236 l -1.502,0 c -0.1,0 -0.191,-0.009 -0.279,-0.025 -0.086,-0.017 -0.191,-0.049 -0.314,-0.098 l -0.157,0.433 -0.004,0.01 c -0.022,0.091 0.03,0.171 0.159,0.243 0.055,0.039 0.113,0.064 0.172,0.081 0.061,0.016 0.121,0.022 0.182,0.022 l 1.502,0 c 0.061,0 0.125,-0.006 0.188,-0.015 0.064,-0.011 0.129,-0.03 0.193,-0.057 0.168,-0.066 0.311,-0.188 0.428,-0.367 l 0.634,0 c -0.197,0.393 -0.468,0.676 -0.814,0.852 -0.284,0.147 -0.57,0.222 -0.859,0.222 l -1.501,0 c -0.289,0 -0.531,-0.076 -0.727,-0.227 -0.244,-0.19 -0.311,-0.439 -0.197,-0.748 l 0.471,-1.294 c 0.112,-0.307 0.344,-0.551 0.695,-0.733 0.296,-0.154 0.607,-0.232 0.936,-0.232 l 1.5,0 c 0.316,0 0.568,0.074 0.756,0.223 0.222,0.182 0.278,0.426 0.166,0.737 z m -0.644,0.01 c 0.03,-0.082 0,-0.153 -0.092,-0.216 -0.098,-0.079 -0.24,-0.119 -0.426,-0.119 l -1.496,0 c -0.13,0 -0.277,0.03 -0.443,0.089 -0.174,0.061 -0.278,0.142 -0.314,0.242 -0.035,0.097 0.009,0.177 0.133,0.241 0.111,0.063 0.24,0.094 0.383,0.094 l 1.502,0 c 0.178,0 0.347,-0.038 0.505,-0.114 0.135,-0.062 0.218,-0.134 0.248,-0.217 z" />
        <path
           style="fill:#16813d"
           id="path455"
           d="m 722.699,363.959 c -0.108,0.3 -0.346,0.545 -0.711,0.737 -0.302,0.159 -0.607,0.236 -0.916,0.236 l -1.502,0 c -0.1,0 -0.191,-0.009 -0.279,-0.025 -0.086,-0.017 -0.191,-0.049 -0.314,-0.098 l -0.157,0.433 -0.004,0.01 c -0.022,0.091 0.03,0.171 0.159,0.243 0.055,0.039 0.113,0.064 0.172,0.081 0.061,0.016 0.121,0.022 0.182,0.022 l 1.502,0 c 0.061,0 0.124,-0.006 0.188,-0.015 0.064,-0.011 0.129,-0.03 0.194,-0.057 0.167,-0.066 0.31,-0.188 0.427,-0.367 l 0.633,0 c -0.196,0.393 -0.467,0.676 -0.813,0.852 -0.284,0.147 -0.569,0.222 -0.858,0.222 l -1.502,0 c -0.288,0 -0.53,-0.076 -0.727,-0.227 -0.244,-0.19 -0.31,-0.439 -0.197,-0.748 l 0.471,-1.294 c 0.111,-0.307 0.344,-0.551 0.695,-0.733 0.297,-0.154 0.607,-0.232 0.935,-0.232 l 1.501,0 c 0.316,0 0.568,0.074 0.755,0.223 0.223,0.182 0.28,0.426 0.166,0.737 z m -0.642,0.01 c 0.029,-0.082 -10e-4,-0.153 -0.092,-0.216 -0.098,-0.079 -0.24,-0.119 -0.426,-0.119 l -1.495,0 c -0.131,0 -0.279,0.03 -0.444,0.089 -0.174,0.061 -0.278,0.142 -0.314,0.242 -0.035,0.097 0.009,0.177 0.133,0.241 0.111,0.063 0.24,0.094 0.384,0.094 l 1.501,0 c 0.178,0 0.346,-0.038 0.505,-0.114 0.134,-0.062 0.217,-0.134 0.248,-0.217 z" />
        <path
           style="fill:#16813d"
           id="path457"
           d="m 732.366,365.943 c -0.306,0.193 -0.637,0.29 -0.991,0.29 l -3.119,0 c -0.327,0 -0.572,-0.088 -0.734,-0.263 -0.176,-0.189 -0.225,-0.479 -0.148,-0.867 l 0.634,0 c -0.022,0.183 0.013,0.313 0.104,0.392 l -0.006,0 c 0.093,0.068 0.22,0.104 0.381,0.104 l 3.12,0 c 0.182,0 0.353,-0.043 0.51,-0.128 0.146,-0.075 0.235,-0.164 0.272,-0.264 l 0.188,-0.516 c 0.035,-0.101 0.009,-0.188 -0.08,-0.263 -0.096,-0.086 -0.236,-0.129 -0.422,-0.129 l -3.115,0 c -0.35,0 -0.613,-0.097 -0.786,-0.29 -0.185,-0.199 -0.226,-0.446 -0.117,-0.741 l 0.188,-0.517 c 0.104,-0.283 0.32,-0.528 0.648,-0.731 0.318,-0.195 0.652,-0.294 1.003,-0.294 l 3.12,0 c 0.327,0 0.57,0.093 0.73,0.272 0.178,0.183 0.228,0.47 0.148,0.857 l -0.635,0 c 0.021,-0.183 -0.014,-0.314 -0.105,-0.392 l 0.005,0 c -0.085,-0.065 -0.212,-0.098 -0.376,-0.098 l -3.12,0 c -0.186,0 -0.36,0.041 -0.521,0.128 -0.141,0.071 -0.229,0.158 -0.264,0.257 l -0.188,0.517 c -0.038,0.104 -0.014,0.192 0.072,0.268 0.096,0.086 0.239,0.129 0.428,0.129 l 3.12,0 c 0.354,0 0.615,0.097 0.781,0.289 0.184,0.204 0.224,0.448 0.118,0.737 l -0.188,0.516 c -0.105,0.292 -0.324,0.54 -0.655,0.737 z" />
        <path
           style="fill:#16813d"
           id="path459"
           d="m 737.324,365.997 c -0.298,0.157 -0.604,0.236 -0.916,0.236 l -1.502,0 c -0.306,0 -0.554,-0.078 -0.744,-0.231 -0.231,-0.19 -0.291,-0.438 -0.18,-0.743 l 0.471,-1.294 c 0.109,-0.3 0.347,-0.545 0.713,-0.738 0.301,-0.158 0.609,-0.237 0.921,-0.237 l 1.501,0 c 0.295,0 0.539,0.074 0.729,0.223 0.24,0.192 0.305,0.44 0.192,0.747 l -0.473,1.3 c -0.108,0.298 -0.346,0.544 -0.712,0.737 z m 0.545,-2.038 c 0.035,-0.097 -0.01,-0.177 -0.133,-0.242 -0.105,-0.059 -0.232,-0.087 -0.381,-0.087 l -1.501,0 c -0.151,0 -0.299,0.026 -0.442,0.082 -0.176,0.068 -0.281,0.15 -0.316,0.247 l -0.475,1.305 c -0.035,0.097 0.009,0.177 0.133,0.242 0.111,0.062 0.238,0.093 0.379,0.093 l 1.506,0 c 0.068,0 0.139,-0.007 0.214,-0.021 0.073,-0.015 0.149,-0.035 0.225,-0.066 0.177,-0.069 0.282,-0.153 0.319,-0.253 l 0.472,-1.3 z" />
        <path
           style="fill:#16813d"
           id="path461"
           d="m 740.246,363.634 -0.945,2.6 -0.641,0 1.287,-3.537 c 0.111,-0.302 0.318,-0.546 0.622,-0.728 0.268,-0.158 0.602,-0.237 1.003,-0.237 l -0.227,0.625 c -0.252,0.038 -0.434,0.085 -0.549,0.143 -0.113,0.06 -0.183,0.125 -0.209,0.197 l -0.111,0.303 0.64,0 -0.231,0.635 -0.639,0 0,-10e-4 z" />
        <path
           style="fill:#16813d"
           id="path463"
           d="m 743.145,363.634 -0.947,2.6 -0.644,0 0.946,-2.6 -0.635,0 0.23,-0.635 0.635,0 0.463,-1.272 0.645,0 -0.463,1.272 0.64,0 -0.231,0.635 -0.639,0 z" />
        <path
           style="fill:#16813d"
           id="path465"
           d="m 748.027,365.985 c -0.271,0.161 -0.578,0.243 -0.918,0.243 -0.186,0 -0.359,-0.026 -0.519,-0.078 -0.161,-0.052 -0.296,-0.133 -0.407,-0.242 -0.193,0.106 -0.393,0.188 -0.596,0.242 -0.204,0.056 -0.398,0.083 -0.584,0.083 -0.328,0 -0.572,-0.079 -0.734,-0.236 -0.18,-0.181 -0.212,-0.426 -0.098,-0.738 l 0.822,-2.26 0.639,0 -0.823,2.265 c -0.034,0.097 -0.006,0.175 0.089,0.237 0.104,0.065 0.248,0.098 0.434,0.098 0.189,0 0.355,-0.032 0.5,-0.098 0.141,-0.059 0.23,-0.14 0.268,-0.242 l 0.508,-1.393 0.639,0 -0.508,1.397 c -0.037,0.1 -0.006,0.177 0.091,0.231 0.104,0.065 0.243,0.098 0.423,0.098 0.192,0 0.361,-0.032 0.505,-0.098 0.143,-0.058 0.229,-0.135 0.265,-0.231 l 0.824,-2.265 0.645,0 -0.822,2.26 c -0.111,0.303 -0.326,0.546 -0.643,0.727 z" />
        <path
           style="fill:#16813d"
           id="path467"
           d="m 752.844,366.002 c -0.301,0.153 -0.611,0.231 -0.93,0.231 l -1.502,0 c -0.322,0 -0.578,-0.076 -0.762,-0.227 -0.225,-0.181 -0.28,-0.425 -0.166,-0.738 0.11,-0.303 0.347,-0.547 0.711,-0.732 0.301,-0.158 0.608,-0.236 0.921,-0.236 l 1.501,0 c 0.096,0 0.188,0.009 0.273,0.025 0.088,0.018 0.191,0.051 0.314,0.099 l 0.16,-0.439 c 0.021,-0.093 -0.031,-0.175 -0.152,-0.246 -0.109,-0.069 -0.227,-0.104 -0.354,-0.104 l -1.501,0 c -0.065,0 -0.13,0.006 -0.193,0.015 -0.063,0.011 -0.129,0.031 -0.194,0.059 -0.167,0.064 -0.311,0.187 -0.426,0.366 l -0.635,0 c 0.201,-0.393 0.471,-0.676 0.811,-0.852 0.283,-0.148 0.571,-0.223 0.863,-0.223 l 1.506,0 c 0.295,0 0.539,0.074 0.729,0.223 0.242,0.186 0.307,0.435 0.191,0.747 l -0.47,1.295 c -0.111,0.305 -0.344,0.55 -0.695,0.737 z m 0.054,-0.733 c 0.034,-0.096 -0.01,-0.177 -0.134,-0.242 -0.112,-0.062 -0.237,-0.094 -0.378,-0.094 l -1.502,0 c -0.174,0 -0.344,0.039 -0.51,0.114 -0.136,0.062 -0.219,0.135 -0.249,0.217 -0.031,0.085 -0.003,0.159 0.084,0.222 0.104,0.075 0.246,0.113 0.429,0.113 l 1.506,0 c 0.147,0 0.293,-0.027 0.437,-0.082 0.177,-0.069 0.282,-0.152 0.317,-0.248 z" />
        <path
           style="fill:#16813d"
           id="path469"
           d="m 758.382,364.073 c 0.013,-0.18 -0.041,-0.302 -0.161,-0.366 -0.045,-0.027 -0.096,-0.048 -0.152,-0.059 -0.057,-0.009 -0.115,-0.015 -0.177,-0.015 l -1.501,0 c -0.15,0 -0.302,0.03 -0.449,0.089 -0.172,0.064 -0.275,0.147 -0.313,0.246 l -0.822,2.265 -0.641,0 1.176,-3.234 0.641,0 -0.049,0.135 c 0.127,-0.048 0.246,-0.082 0.354,-0.103 0.108,-0.021 0.218,-0.032 0.329,-0.032 l 1.505,0 c 0.286,0 0.519,0.073 0.7,0.217 0.219,0.177 0.281,0.461 0.193,0.857 l -0.633,0 z" />
        <path
           style="fill:#16813d"
           id="path471"
           d="m 764.074,363.959 c -0.109,0.3 -0.346,0.545 -0.713,0.737 -0.301,0.159 -0.607,0.236 -0.916,0.236 l -1.5,0 c -0.101,0 -0.193,-0.009 -0.279,-0.025 -0.087,-0.017 -0.192,-0.049 -0.315,-0.098 l -0.157,0.433 -0.004,0.01 c -0.022,0.091 0.031,0.171 0.158,0.243 0.056,0.039 0.113,0.064 0.173,0.081 0.06,0.016 0.12,0.022 0.183,0.022 l 1.5,0 c 0.063,0 0.125,-0.006 0.188,-0.015 0.064,-0.011 0.129,-0.03 0.194,-0.057 0.168,-0.066 0.311,-0.188 0.427,-0.367 l 0.634,0 c -0.198,0.393 -0.469,0.676 -0.814,0.852 -0.284,0.147 -0.57,0.222 -0.859,0.222 l -1.501,0 c -0.288,0 -0.53,-0.076 -0.727,-0.227 -0.245,-0.19 -0.31,-0.439 -0.198,-0.748 l 0.472,-1.294 c 0.111,-0.307 0.343,-0.551 0.694,-0.733 0.297,-0.154 0.609,-0.232 0.936,-0.232 l 1.502,0 c 0.314,0 0.566,0.074 0.754,0.223 0.224,0.182 0.281,0.426 0.168,0.737 z m -0.644,0.01 c 0.031,-0.082 0,-0.153 -0.091,-0.216 -0.099,-0.079 -0.24,-0.119 -0.426,-0.119 l -1.495,0 c -0.131,0 -0.279,0.03 -0.445,0.089 -0.174,0.061 -0.277,0.142 -0.314,0.242 -0.035,0.097 0.01,0.177 0.133,0.241 0.112,0.063 0.24,0.094 0.385,0.094 l 1.5,0 c 0.179,0 0.348,-0.038 0.506,-0.114 0.135,-0.062 0.217,-0.134 0.247,-0.217 z" />
      </g>
      <g
         id="g473">
        <path
           id="path475"
           d="m 764.117,354.047 c 0,0.921 -0.406,1.695 -1.219,2.323 -0.746,0.606 -1.679,0.91 -2.795,0.91 l -9.83,0 c -1.029,0 -1.902,-0.276 -2.617,-0.829 -0.77,-0.596 -1.256,-1.505 -1.463,-2.729 l 2,0 c 0.141,0.574 0.4,0.985 0.779,1.235 l -0.016,0 c 0.367,0.217 0.807,0.324 1.316,0.324 l 9.83,0 c 0.563,0 1.051,-0.13 1.463,-0.39 0.368,-0.238 0.553,-0.52 0.553,-0.845 l 0,-1.625 c 0,-0.304 -0.185,-0.574 -0.553,-0.813 -0.434,-0.281 -0.926,-0.422 -1.479,-0.422 l -5.232,0 0,-1.999 5.248,0 c 0.574,0 1.063,-0.135 1.463,-0.406 0.368,-0.237 0.553,-0.515 0.553,-0.828 l 0,-1.625 c 0,-0.304 -0.185,-0.575 -0.553,-0.813 -0.434,-0.282 -0.926,-0.423 -1.479,-0.423 l -9.814,0 c -0.499,0 -0.933,0.108 -1.301,0.325 l 0.017,0 c -0.39,0.228 -0.655,0.639 -0.796,1.235 l -2,0 c 0.195,-1.235 0.672,-2.135 1.431,-2.698 0.715,-0.574 1.598,-0.86 2.649,-0.86 l 9.83,0 c 1.095,0 2.026,0.303 2.795,0.909 0.813,0.64 1.219,1.414 1.219,2.324 0,0.791 -0.031,1.511 -0.097,2.16 -0.022,0.325 -0.13,0.624 -0.325,0.895 -0.087,0.119 -0.188,0.243 -0.301,0.374 -0.113,0.13 -0.252,0.271 -0.414,0.422 0.314,0.293 0.553,0.563 0.715,0.813 0.184,0.304 0.293,0.596 0.325,0.878 0.067,0.64 0.098,1.365 0.098,2.178 z" />
      </g>
      <g
         id="g477">
        <path
           style="fill:#ffffff"
           id="path479"
           d="m 711.166,345.909 c 0.451,0.076 0.813,0.288 1.086,0.638 0.264,0.34 0.396,0.75 0.396,1.23 l 0,4.597 c 0,0.517 -0.142,0.954 -0.426,1.313 -0.293,0.38 -0.655,0.57 -1.086,0.57 l -5.12,0 0,-0.95 5.12,0 c 0.151,0 0.284,-0.083 0.396,-0.25 l -0.008,0.008 c 0.126,-0.188 0.189,-0.418 0.189,-0.691 l 0,-4.597 c 0,-0.232 -0.051,-0.436 -0.152,-0.607 l 0,0.008 c -0.11,-0.183 -0.301,-0.307 -0.569,-0.372 l 0,-0.745 0.174,-0.152 z" />
        <path
           style="fill:#ffffff"
           id="path481"
           d="m 712.215,336.475 c 0.288,0.364 0.433,0.805 0.433,1.321 l 0,4.589 c 0,0.521 -0.142,0.957 -0.426,1.307 -0.293,0.375 -0.655,0.562 -1.086,0.562 l -3.616,0 c -0.42,0 -0.779,-0.187 -1.078,-0.562 -0.289,-0.365 -0.434,-0.806 -0.434,-1.322 l 0,-4.596 c 0,-0.481 0.135,-0.889 0.403,-1.223 0.268,-0.35 0.691,-0.575 1.269,-0.677 l 0,0.935 c -0.279,0.066 -0.474,0.189 -0.585,0.372 -0.097,0.157 -0.145,0.357 -0.145,0.601 l 0,4.588 c 0,0.273 0.063,0.507 0.189,0.699 0.106,0.167 0.233,0.251 0.38,0.251 l 3.616,0 c 0.151,0 0.284,-0.084 0.396,-0.251 l -0.008,0.007 c 0.126,-0.187 0.189,-0.417 0.189,-0.69 l 0,-4.589 c 0,-0.238 -0.051,-0.45 -0.152,-0.638 -0.105,-0.223 -0.25,-0.334 -0.433,-0.334 l -1.329,0 0,3.714 -0.935,0 0,-4.641 2.271,0 c 0.422,-0.001 0.782,0.192 1.081,0.577 z" />
        <path
           style="fill:#ffffff"
           id="path483"
           d="m 709.366,326.433 c 0.283,0.349 0.425,0.787 0.425,1.313 l 0,5.538 2.856,0 0,0.935 -5.128,0 c -0.42,0 -0.779,-0.188 -1.078,-0.563 -0.289,-0.364 -0.434,-0.805 -0.434,-1.321 l 0,-4.589 c 0,-0.511 0.145,-0.946 0.434,-1.307 0.299,-0.38 0.658,-0.569 1.078,-0.569 l 0.76,0 c 0.431,0 0.793,0.188 1.087,0.563 z m -1.846,0.364 c -0.142,0 -0.269,0.086 -0.38,0.259 -0.127,0.192 -0.189,0.422 -0.189,0.69 l 0,4.597 c 0,0.232 0.048,0.442 0.145,0.63 0.096,0.208 0.237,0.312 0.425,0.312 l 1.337,0 0,-5.538 c 0,-0.269 -0.061,-0.498 -0.182,-0.69 -0.112,-0.173 -0.243,-0.259 -0.396,-0.259 l -0.76,0 0,-10e-4 z" />
        <path
           style="fill:#ffffff"
           id="path485"
           d="m 711.166,315.851 c 0.451,0.076 0.813,0.288 1.086,0.638 0.264,0.34 0.396,0.75 0.396,1.23 l 0,4.597 c 0,0.517 -0.142,0.954 -0.426,1.313 -0.293,0.38 -0.655,0.57 -1.086,0.57 l -5.12,0 0,-0.95 5.12,0 c 0.151,0 0.284,-0.083 0.396,-0.25 l -0.008,0.008 c 0.126,-0.188 0.189,-0.418 0.189,-0.691 l 0,-4.597 c 0,-0.232 -0.051,-0.436 -0.152,-0.607 l 0,0.008 c -0.11,-0.183 -0.301,-0.307 -0.569,-0.372 l 0,-0.745 0.174,-0.152 z" />
      </g>
    </g>
  </g>
</svg>
