<?xml version="1.0" encoding="utf-8"?>
<!-- Generator: Adobe Illustrator 12.0.0, SVG Export Plug-In . SVG Version: 6.00 Build 51448)  -->
<!DOCTYPE svg PUBLIC "-//W3C//DTD SVG 1.1//EN" "http://www.w3.org/Graphics/SVG/1.1/DTD/svg11.dtd" [
	<!ENTITY ns_svg "http://www.w3.org/2000/svg">
	<!ENTITY ns_xlink "http://www.w3.org/1999/xlink">
]>
<svg  version="1.1" xmlns="&ns_svg;" xmlns:xlink="&ns_xlink;" width="271.649" height="225.573" viewBox="0 0 271.649 225.573"
	 overflow="visible" enable-background="new 0 0 271.649 225.573" xml:space="preserve">
<g id="Ebene_1">
	<g>
		<g>
			<g enable-background="new    ">
				<g>
					<polygon fill="#828282" points="136.069,205.249 113.276,192.849 113.332,162.761 136.125,175.161 					"/>
				</g>
				<g>
					<polygon fill="#B4B4B4" points="136.576,174.138 113.783,161.739 114.223,161.677 137.016,174.077 					"/>
				</g>
				<g>
					<polygon fill="#B4B4B4" points="108.201,209.165 85.408,196.765 113.276,192.849 136.069,205.249 					"/>
				</g>
				<g>
					<polygon fill="#828282" points="107.302,210.25 84.509,197.851 84.51,197.375 107.303,209.775 					"/>
				</g>
				<g>
					<polygon fill="#2678A1" points="108.257,179.078 85.464,166.678 113.332,162.761 136.125,175.161 					"/>
				</g>
				<g>
					<polygon fill="#1B6082" points="108.201,209.165 85.408,196.765 85.464,166.678 108.257,179.078 					"/>
				</g>
				<g>
					<path fill="#DFDFDF" d="M136.576,174.138l0.439-0.062v0.483l-0.059,31.047v0.476l-0.44,0.063l-28.766,4.042l-0.448,0.063
						l0-0.476l0.058-31.047l0-0.484l0.449-0.063L136.576,174.138z M136.069,205.249l0.056-30.088l-27.868,3.917l-0.056,30.087
						L136.069,205.249"/>
				</g>
				<g>
					<polygon fill="#2E8CBB" points="136.125,175.161 136.069,205.249 108.201,209.165 108.257,179.078 					"/>
				</g>
				<g>
					<polygon fill="#B4B4B4" points="107.81,178.181 85.017,165.782 113.783,161.739 136.576,174.138 					"/>
				</g>
				<g>
					<polygon fill="#828282" points="107.303,209.775 84.51,197.375 84.567,166.329 107.361,178.728 					"/>
				</g>
				<g>
					<polygon fill="#B4B4B4" points="107.361,178.244 84.568,165.845 85.017,165.782 107.81,178.181 					"/>
				</g>
				<g>
					<polygon fill="#828282" points="107.361,178.728 84.567,166.329 84.568,165.845 107.361,178.244 					"/>
				</g>
			</g>
		</g>
	</g>
	<g>
		<g>
			<g enable-background="new    ">
				<g>
					<polygon fill="#828282" points="107.548,209.29 84.755,196.89 84.811,166.803 107.604,179.203 					"/>
				</g>
				<g>
					<polygon fill="#B4B4B4" points="108.055,178.179 85.262,165.78 85.702,165.718 108.495,178.118 					"/>
				</g>
				<g>
					<polygon fill="#B4B4B4" points="79.68,213.206 56.887,200.806 84.755,196.89 107.548,209.29 					"/>
				</g>
				<g>
					<polygon fill="#828282" points="78.781,214.292 55.988,201.892 55.989,201.408 78.782,213.807 					"/>
				</g>
				<g>
					<polygon fill="#2678A1" points="79.736,183.119 56.943,170.719 84.811,166.803 107.604,179.203 					"/>
				</g>
				<g>
					<polygon fill="#1B6082" points="79.68,213.206 56.887,200.806 56.943,170.719 79.736,183.119 					"/>
				</g>
				<g>
					<polygon fill="#2E8CBB" points="107.604,179.203 107.548,209.29 79.68,213.206 79.736,183.119 					"/>
				</g>
				<g>
					<polygon fill="#B4B4B4" points="79.289,182.222 56.496,169.823 85.262,165.78 108.055,178.179 					"/>
				</g>
				<g>
					<polygon fill="#828282" points="78.782,213.807 55.989,201.408 56.046,170.37 78.84,182.769 					"/>
				</g>
				<g>
					<path fill="#DFDFDF" d="M108.055,178.179l0.44-0.062l-0.001,0.483l-0.058,31.039l-0.001,0.483l-0.44,0.063l-28.766,4.043
						l-0.448,0.063l0.001-0.484l0.058-31.038l0-0.484l0.449-0.063L108.055,178.179z M107.548,209.29l0.056-30.087l-27.868,3.916
						l-0.056,30.087L107.548,209.29"/>
				</g>
				<g>
					<polygon fill="#B4B4B4" points="78.84,182.285 56.047,169.886 56.496,169.823 79.289,182.222 					"/>
				</g>
				<g>
					<polygon fill="#828282" points="78.84,182.769 56.046,170.37 56.047,169.886 78.84,182.285 					"/>
				</g>
			</g>
		</g>
	</g>
	<g>
		<g>
			<g enable-background="new    ">
				<g>
					<polygon fill="#828282" points="78.416,213.448 55.622,201.048 55.678,170.969 78.471,183.369 					"/>
				</g>
				<g>
					<polygon fill="#B4B4B4" points="78.921,182.346 56.128,169.947 56.569,169.885 79.362,182.285 					"/>
				</g>
				<g>
					<polygon fill="#B4B4B4" points="50.547,217.364 27.754,204.965 55.622,201.048 78.416,213.448 					"/>
				</g>
				<g>
					<polygon fill="#828282" points="49.648,218.45 26.855,206.05 26.856,205.575 49.649,217.974 					"/>
				</g>
				<g>
					<polygon fill="#2678A1" points="50.603,187.286 27.81,174.886 55.678,170.969 78.471,183.369 					"/>
				</g>
				<g>
					<polygon fill="#1B6082" points="50.547,217.364 27.754,204.965 27.81,174.886 50.603,187.286 					"/>
				</g>
				<g>
					<path fill="#DFDFDF" d="M78.921,182.346l0.441-0.062l-0.001,0.476l-0.058,31.047l-0.001,0.476l-0.44,0.062l-28.766,4.043
						l-0.448,0.063l0.001-0.476l0.058-31.047l0.001-0.476l0.448-0.063L78.921,182.346z M78.416,213.448l0.056-30.079l-27.868,3.917
						l-0.056,30.078L78.416,213.448"/>
				</g>
				<g>
					<polygon fill="#2E8CBB" points="78.471,183.369 78.416,213.448 50.547,217.364 50.603,187.286 					"/>
				</g>
				<g>
					<polygon fill="#B4B4B4" points="50.156,186.389 27.363,173.99 56.128,169.947 78.921,182.346 					"/>
				</g>
				<g>
					<polygon fill="#828282" points="49.649,217.974 26.856,205.575 26.914,174.528 49.707,186.927 					"/>
				</g>
				<g>
					<polygon fill="#B4B4B4" points="49.708,186.452 26.915,174.052 27.363,173.99 50.156,186.389 					"/>
				</g>
				<g>
					<polygon fill="#828282" points="49.707,186.927 26.914,174.528 26.915,174.052 49.708,186.452 					"/>
				</g>
			</g>
		</g>
	</g>
	<g>
		<g>
			<g enable-background="new    ">
				<g>
					<polygon fill="#828282" points="78.296,182.379 55.502,169.98 55.558,139.902 78.352,152.301 					"/>
				</g>
				<g>
					<polygon fill="#B4B4B4" points="78.802,151.27 56.009,138.871 56.449,138.808 79.243,151.208 					"/>
				</g>
				<g>
					<polygon fill="#B4B4B4" points="50.427,186.296 27.634,173.897 55.502,169.98 78.296,182.379 					"/>
				</g>
				<g>
					<polygon fill="#828282" points="49.537,187.38 26.743,174.982 26.744,174.507 49.538,186.906 					"/>
				</g>
				<g>
					<polygon fill="#2678A1" points="50.483,156.217 27.69,143.818 55.558,139.902 78.352,152.301 					"/>
				</g>
				<g>
					<polygon fill="#1B6082" points="50.427,186.296 27.634,173.897 27.69,143.818 50.483,156.217 					"/>
				</g>
				<g>
					<path fill="#DFDFDF" d="M78.802,151.27l0.44-0.063l-0.001,0.484l-0.058,31.048l-0.001,0.475l-0.44,0.062l-28.766,4.043
						l-0.44,0.062l0.001-0.475l0.058-31.047l0.001-0.484l0.44-0.063L78.802,151.27z M78.296,182.379l0.056-30.078l-27.868,3.916
						l-0.056,30.079L78.296,182.379"/>
				</g>
				<g>
					<polygon fill="#2E8CBB" points="78.352,152.301 78.296,182.379 50.427,186.296 50.483,156.217 					"/>
				</g>
				<g>
					<polygon fill="#B4B4B4" points="50.037,155.312 27.243,142.914 56.009,138.871 78.802,151.27 					"/>
				</g>
				<g>
					<polygon fill="#828282" points="49.538,186.906 26.744,174.507 26.802,143.459 49.595,155.859 					"/>
				</g>
				<g>
					<polygon fill="#B4B4B4" points="49.596,155.375 26.803,142.975 27.243,142.914 50.037,155.312 					"/>
				</g>
				<g>
					<polygon fill="#828282" points="49.595,155.859 26.802,143.459 26.803,142.975 49.596,155.375 					"/>
				</g>
			</g>
		</g>
	</g>
	<g>
		<g>
			<g enable-background="new    ">
				<g>
					<polygon fill="#828282" points="227.023,158.171 199.672,143.292 199.771,89.498 227.123,104.377 					"/>
				</g>
				<g>
					<polygon fill="#B4B4B4" points="227.565,103.355 200.214,88.477 200.662,88.414 228.015,103.292 					"/>
				</g>
				<g>
					<polygon fill="#B4B4B4" points="177.183,165.176 149.831,150.297 199.672,143.292 227.023,158.171 					"/>
				</g>
				<g>
					<polygon fill="#828282" points="176.284,166.262 148.932,151.382 148.933,150.899 176.285,165.778 					"/>
				</g>
				<g>
					<polygon fill="#2678A1" points="177.282,111.382 149.931,96.502 199.771,89.498 227.123,104.377 					"/>
				</g>
				<g>
					<polygon fill="#1B6082" points="177.183,165.176 149.831,150.297 149.931,96.502 177.282,111.382 					"/>
				</g>
				<g>
					<polygon fill="#2E8CBB" points="227.123,104.377 227.023,158.171 177.183,165.176 177.282,111.382 					"/>
				</g>
				<g>
					<polygon fill="#B4B4B4" points="176.836,110.485 149.484,95.606 200.214,88.477 227.565,103.355 					"/>
				</g>
				<g>
					<polygon fill="#828282" points="176.285,165.778 148.933,150.899 149.034,96.145 176.387,111.024 					"/>
				</g>
				<g>
					<path fill="#DFDFDF" d="M227.565,103.355l0.449-0.063l-0.001,0.476l-0.102,54.754l-0.001,0.484l-0.448,0.063l-50.73,7.13
						l-0.448,0.063l0.001-0.484l0.102-54.754l0.001-0.476l0.448-0.063L227.565,103.355z M227.023,158.171l0.1-53.794l-49.841,7.004
						l-0.1,53.794L227.023,158.171"/>
				</g>
				<g>
					<polygon fill="#B4B4B4" points="176.388,110.548 149.035,95.669 149.484,95.606 176.836,110.485 					"/>
				</g>
				<g>
					<polygon fill="#828282" points="176.387,111.024 149.034,96.145 149.035,95.669 176.388,110.548 					"/>
				</g>
			</g>
		</g>
	</g>
	<g>
		<g>
			<g enable-background="new    ">
				<g>
					<polygon fill="#828282" points="199.499,71.168 188.103,64.968 188.125,53.132 199.521,59.332 					"/>
				</g>
				<g>
					<polygon fill="#B4B4B4" points="199.964,58.31 188.567,52.11 189.016,52.047 200.412,58.247 					"/>
				</g>
				<g>
					<polygon fill="#B4B4B4" points="188.541,72.708 177.145,66.508 188.103,64.968 199.499,71.168 					"/>
				</g>
				<g>
					<polygon fill="#828282" points="187.643,73.793 176.246,67.594 176.247,67.109 187.644,73.309 					"/>
				</g>
				<g>
					<polygon fill="#2678A1" points="188.563,60.872 177.167,54.672 188.125,53.132 199.521,59.332 					"/>
				</g>
				<g>
					<polygon fill="#2E8CBB" points="199.521,59.332 199.499,71.168 188.541,72.708 188.563,60.872 					"/>
				</g>
				<g>
					<path fill="#DFDFDF" d="M199.964,58.31l0.448-0.063l-0.001,0.484l-0.023,12.787l-0.001,0.484l-0.448,0.063l-11.848,1.665
						l-0.448,0.063l0.001-0.484l0.023-12.787l0.001-0.484l0.449-0.063L199.964,58.31z M199.499,71.168l0.022-11.836l-10.958,1.54
						l-0.022,11.836L199.499,71.168"/>
				</g>
				<g>
					<polygon fill="#1B6082" points="188.541,72.708 177.145,66.508 177.167,54.672 188.563,60.872 					"/>
				</g>
				<g>
					<polygon fill="#B4B4B4" points="188.117,59.975 176.72,53.775 188.567,52.11 199.964,58.31 					"/>
				</g>
				<g>
					<polygon fill="#828282" points="187.644,73.309 176.247,67.109 176.271,54.322 187.667,60.522 					"/>
				</g>
				<g>
					<polygon fill="#B4B4B4" points="187.668,60.038 176.271,53.838 176.72,53.775 188.117,59.975 					"/>
				</g>
				<g>
					<polygon fill="#828282" points="187.667,60.522 176.271,54.322 176.271,53.838 187.668,60.038 					"/>
				</g>
			</g>
		</g>
	</g>
	<g>
		<g>
			<g enable-background="new    ">
				<g>
					<polygon fill="#828282" points="187.998,72.779 176.602,66.58 176.623,54.752 188.02,60.952 					"/>
				</g>
				<g>
					<polygon fill="#B4B4B4" points="188.47,59.929 177.073,53.729 177.514,53.667 188.911,59.867 					"/>
				</g>
				<g>
					<polygon fill="#B4B4B4" points="177.04,74.319 165.644,68.12 176.602,66.58 187.998,72.779 					"/>
				</g>
				<g>
					<polygon fill="#828282" points="176.149,75.404 164.752,69.205 164.753,68.72 176.149,74.92 					"/>
				</g>
				<g>
					<polygon fill="#2678A1" points="177.062,62.492 165.665,56.292 176.623,54.752 188.02,60.952 					"/>
				</g>
				<g>
					<polygon fill="#1B6082" points="177.04,74.319 165.644,68.12 165.665,56.292 177.062,62.492 					"/>
				</g>
				<g>
					<path fill="#DFDFDF" d="M188.47,59.929l0.441-0.062l-0.001,0.476l-0.024,12.788l-0.001,0.484l-0.44,0.062l-11.854,1.666
						l-0.44,0.062V74.92l0.024-12.787l0.001-0.476l0.44-0.062L188.47,59.929z M187.998,72.779l0.021-11.828l-10.958,1.54
						l-0.021,11.828L187.998,72.779"/>
				</g>
				<g>
					<polygon fill="#2E8CBB" points="188.02,60.952 187.998,72.779 177.04,74.319 177.062,62.492 					"/>
				</g>
				<g>
					<polygon fill="#B4B4B4" points="176.615,61.595 165.219,55.396 177.073,53.729 188.47,59.929 					"/>
				</g>
				<g>
					<polygon fill="#828282" points="176.149,74.92 164.753,68.72 164.777,55.933 176.174,62.133 					"/>
				</g>
				<g>
					<polygon fill="#B4B4B4" points="176.175,61.657 164.778,55.458 165.219,55.396 176.615,61.595 					"/>
				</g>
				<g>
					<polygon fill="#828282" points="176.174,62.133 164.777,55.933 164.778,55.458 176.175,61.657 					"/>
				</g>
			</g>
		</g>
	</g>
	<g>
		<g>
			<g enable-background="new    ">
				<g>
					<polygon fill="#828282" points="175.833,74.489 164.437,68.29 164.459,56.462 175.855,62.662 					"/>
				</g>
				<g>
					<polygon fill="#B4B4B4" points="176.298,61.64 164.901,55.44 165.35,55.377 176.746,61.577 					"/>
				</g>
				<g>
					<polygon fill="#B4B4B4" points="164.867,76.03 153.471,69.831 164.437,68.29 175.833,74.489 					"/>
				</g>
				<g>
					<polygon fill="#828282" points="163.977,77.124 152.58,70.924 152.581,70.439 163.978,76.639 					"/>
				</g>
				<g>
					<polygon fill="#2678A1" points="164.89,64.203 153.493,58.003 164.459,56.462 175.855,62.662 					"/>
				</g>
				<g>
					<polygon fill="#1B6082" points="164.867,76.03 153.471,69.831 153.493,58.003 164.89,64.203 					"/>
				</g>
				<g>
					<path fill="#DFDFDF" d="M176.298,61.64l0.448-0.063l-0.001,0.484l-0.023,12.787l-0.001,0.484l-0.448,0.063l-11.855,1.666
						l-0.44,0.062l0.001-0.484l0.023-12.787l0.001-0.484l0.44-0.062L176.298,61.64z M175.833,74.489l0.022-11.828l-10.966,1.541
						l-0.022,11.828L175.833,74.489"/>
				</g>
				<g>
					<polygon fill="#2E8CBB" points="175.855,62.662 175.833,74.489 164.867,76.03 164.89,64.203 					"/>
				</g>
				<g>
					<polygon fill="#B4B4B4" points="164.442,63.306 153.046,57.106 164.901,55.44 176.298,61.64 					"/>
				</g>
				<g>
					<polygon fill="#828282" points="163.978,76.639 152.581,70.439 152.604,57.652 164.001,63.852 					"/>
				</g>
				<g>
					<polygon fill="#B4B4B4" points="164.002,63.368 152.605,57.168 153.046,57.106 164.442,63.306 					"/>
				</g>
				<g>
					<polygon fill="#828282" points="164.001,63.852 152.604,57.652 152.605,57.168 164.002,63.368 					"/>
				</g>
			</g>
		</g>
	</g>
	<g>
		<g>
			<g enable-background="new    ">
				<g>
					<polygon fill="#828282" points="199.797,32.028 188.4,25.829 188.423,14.001 199.819,20.201 					"/>
				</g>
				<g>
					<polygon fill="#B4B4B4" points="200.271,19.178 188.874,12.978 189.322,12.915 200.719,19.115 					"/>
				</g>
				<g>
					<polygon fill="#B4B4B4" points="188.839,33.568 177.442,27.369 188.4,25.829 199.797,32.028 					"/>
				</g>
				<g>
					<polygon fill="#828282" points="187.948,34.653 176.552,28.453 176.553,27.978 187.949,34.177 					"/>
				</g>
				<g>
					<polygon fill="#2678A1" points="188.861,21.741 177.465,15.541 188.423,14.001 199.819,20.201 					"/>
				</g>
				<g>
					<polygon fill="#1B6082" points="188.839,33.568 177.442,27.369 177.465,15.541 188.861,21.741 					"/>
				</g>
				<g>
					<polygon fill="#2E8CBB" points="199.819,20.201 199.797,32.028 188.839,33.568 188.861,21.741 					"/>
				</g>
				<g>
					<polygon fill="#B4B4B4" points="188.422,20.843 177.025,14.643 188.874,12.978 200.271,19.178 					"/>
				</g>
				<g>
					<polygon fill="#828282" points="187.949,34.177 176.553,27.978 176.576,15.182 187.973,21.381 					"/>
				</g>
				<g>
					<path fill="#DFDFDF" d="M200.271,19.178l0.448-0.063l-0.001,0.476l-0.023,12.796l-0.001,0.476l-0.448,0.063l-11.849,1.665
						l-0.448,0.063l0.001-0.476l0.023-12.796l0.001-0.476l0.448-0.063L200.271,19.178z M199.797,32.028l0.022-11.828l-10.958,1.54
						l-0.022,11.828L199.797,32.028"/>
				</g>
				<g>
					<polygon fill="#B4B4B4" points="187.974,20.906 176.577,14.706 177.025,14.643 188.422,20.843 					"/>
				</g>
				<g>
					<polygon fill="#828282" points="187.973,21.381 176.576,15.182 176.577,14.706 187.974,20.906 					"/>
				</g>
			</g>
		</g>
	</g>
	<g>
		<g>
			<g enable-background="new    ">
				<g>
					<polygon fill="#828282" points="107.532,146.678 84.738,134.279 84.794,104.191 107.587,116.59 					"/>
				</g>
				<g>
					<polygon fill="#B4B4B4" points="108.038,115.567 85.245,103.168 85.693,103.105 108.486,115.504 					"/>
				</g>
				<g>
					<polygon fill="#B4B4B4" points="79.663,150.594 56.87,138.195 84.738,134.279 107.532,146.678 					"/>
				</g>
				<g>
					<polygon fill="#828282" points="78.772,151.679 55.979,139.28 55.98,138.795 78.773,151.194 					"/>
				</g>
				<g>
					<polygon fill="#2678A1" points="79.719,120.506 56.926,108.107 84.794,104.191 107.587,116.59 					"/>
				</g>
				<g>
					<polygon fill="#1B6082" points="79.663,150.594 56.87,138.195 56.926,108.107 79.719,120.506 					"/>
				</g>
				<g>
					<path fill="#DFDFDF" d="M108.038,115.567l0.449-0.063l-0.001,0.483l-0.058,31.039l-0.001,0.484l-0.448,0.063l-28.766,4.043
						l-0.44,0.062l0.001-0.485l0.058-31.038l0-0.484l0.44-0.062L108.038,115.567z M107.532,146.678l0.056-30.088l-27.868,3.916
						l-0.056,30.088L107.532,146.678"/>
				</g>
				<g>
					<polygon fill="#2E8CBB" points="107.587,116.59 107.532,146.678 79.663,150.594 79.719,120.506 					"/>
				</g>
				<g>
					<polygon fill="#B4B4B4" points="79.272,119.61 56.479,107.21 85.245,103.168 108.038,115.567 					"/>
				</g>
				<g>
					<polygon fill="#828282" points="78.773,151.194 55.98,138.795 56.038,107.757 78.831,120.156 					"/>
				</g>
				<g>
					<polygon fill="#B4B4B4" points="78.832,119.671 56.039,107.272 56.479,107.21 79.272,119.61 					"/>
				</g>
				<g>
					<polygon fill="#828282" points="78.831,120.156 56.038,107.757 56.039,107.272 78.832,119.671 					"/>
				</g>
			</g>
		</g>
	</g>
	<g>
		<g>
			<g enable-background="new    ">
				<g>
					<polygon fill="#828282" points="78.398,150.835 55.604,138.436 55.66,108.357 78.454,120.756 					"/>
				</g>
				<g>
					<polygon fill="#B4B4B4" points="78.904,119.734 56.111,107.334 56.551,107.272 79.345,119.671 					"/>
				</g>
				<g>
					<polygon fill="#B4B4B4" points="50.529,154.751 27.736,142.352 55.604,138.436 78.398,150.835 					"/>
				</g>
				<g>
					<polygon fill="#828282" points="49.639,155.845 26.845,143.447 26.846,142.961 49.64,155.361 					"/>
				</g>
				<g>
					<polygon fill="#2678A1" points="50.585,124.673 27.792,112.274 55.661,108.357 78.454,120.756 					"/>
				</g>
				<g>
					<polygon fill="#1B6082" points="50.529,154.751 27.736,142.352 27.792,112.274 50.585,124.673 					"/>
				</g>
				<g>
					<polygon fill="#2E8CBB" points="78.454,120.756 78.398,150.835 50.529,154.751 50.585,124.673 					"/>
				</g>
				<g>
					<polygon fill="#B4B4B4" points="50.139,123.777 27.345,111.377 56.111,107.334 78.904,119.734 					"/>
				</g>
				<g>
					<polygon fill="#828282" points="49.64,155.361 26.846,142.961 26.904,111.915 49.697,124.314 					"/>
				</g>
				<g>
					<path fill="#DFDFDF" d="M78.904,119.734l0.441-0.063l-0.001,0.476l-0.058,31.047l-0.001,0.485l-0.44,0.062l-28.766,4.043
						l-0.44,0.062l0.001-0.484l0.058-31.047l0.001-0.476l0.44-0.062L78.904,119.734z M78.398,150.835l0.056-30.079l-27.868,3.917
						l-0.056,30.078L78.398,150.835"/>
				</g>
				<g>
					<polygon fill="#B4B4B4" points="49.698,123.838 26.905,111.439 27.345,111.377 50.139,123.777 					"/>
				</g>
				<g>
					<polygon fill="#828282" points="49.697,124.314 26.904,111.915 26.905,111.439 49.698,123.838 					"/>
				</g>
			</g>
		</g>
	</g>
	<g>
		<g>
			<g enable-background="new    ">
				<g>
					<polygon fill="#828282" points="135.935,81.066 113.141,68.667 113.197,38.58 135.99,50.979 					"/>
				</g>
				<g>
					<polygon fill="#B4B4B4" points="136.433,49.958 113.64,37.558 114.088,37.495 136.881,49.895 					"/>
				</g>
				<g>
					<polygon fill="#B4B4B4" points="108.058,84.984 85.265,72.585 113.141,68.667 135.935,81.066 					"/>
				</g>
				<g>
					<polygon fill="#828282" points="107.167,86.069 84.374,73.669 84.375,73.186 107.168,85.585 					"/>
				</g>
				<g>
					<polygon fill="#2678A1" points="108.114,54.897 85.321,42.498 113.197,38.58 135.99,50.979 					"/>
				</g>
				<g>
					<polygon fill="#1B6082" points="108.058,84.984 85.265,72.585 85.321,42.498 108.114,54.897 					"/>
				</g>
				<g>
					<polygon fill="#2E8CBB" points="135.99,50.979 135.935,81.066 108.058,84.984 108.114,54.897 					"/>
				</g>
				<g>
					<polygon fill="#B4B4B4" points="107.675,53.999 84.882,41.6 113.64,37.558 136.433,49.958 					"/>
				</g>
				<g>
					<polygon fill="#828282" points="107.168,85.585 84.375,73.186 84.433,42.147 107.226,54.546 					"/>
				</g>
				<g>
					<path fill="#DFDFDF" d="M136.433,49.958l0.448-0.063v0.484l-0.059,31.039v0.484l-0.449,0.063l-28.757,4.042l-0.448,0.063
						l0.001-0.484l0.058-31.039l0-0.484l0.449-0.063L136.433,49.958z M135.935,81.066l0.056-30.087l-27.876,3.918l-0.056,30.087
						L135.935,81.066"/>
				</g>
				<g>
					<polygon fill="#B4B4B4" points="107.227,54.062 84.434,41.663 84.882,41.6 107.675,53.999 					"/>
				</g>
				<g>
					<polygon fill="#828282" points="107.226,54.546 84.433,42.147 84.434,41.663 107.227,54.062 					"/>
				</g>
			</g>
		</g>
	</g>
	<g>
		<g>
			<g enable-background="new    ">
				<g>
					<polygon fill="#828282" points="78.506,119.299 55.712,106.9 55.769,76.821 78.562,89.22 					"/>
				</g>
				<g>
					<polygon fill="#B4B4B4" points="79.012,88.197 56.219,75.798 56.659,75.736 79.453,88.135 					"/>
				</g>
				<g>
					<polygon fill="#B4B4B4" points="50.638,123.216 27.845,110.817 55.712,106.9 78.506,119.299 					"/>
				</g>
				<g>
					<polygon fill="#828282" points="49.747,124.301 26.954,111.902 26.955,111.426 49.748,123.826 					"/>
				</g>
				<g>
					<polygon fill="#2678A1" points="50.694,93.137 27.9,80.737 55.769,76.821 78.562,89.22 					"/>
				</g>
				<g>
					<polygon fill="#1B6082" points="50.638,123.216 27.845,110.817 27.9,80.737 50.694,93.137 					"/>
				</g>
				<g>
					<polygon fill="#2E8CBB" points="78.562,89.22 78.506,119.299 50.638,123.216 50.694,93.137 					"/>
				</g>
				<g>
					<polygon fill="#B4B4B4" points="50.247,92.24 27.453,79.841 56.219,75.798 79.012,88.197 					"/>
				</g>
				<g>
					<polygon fill="#828282" points="49.748,123.826 26.955,111.426 27.012,80.378 49.806,92.778 					"/>
				</g>
				<g>
					<path fill="#DFDFDF" d="M79.012,88.197l0.44-0.062l-0.001,0.476l-0.058,31.048l-0.001,0.476l-0.44,0.063l-28.766,4.042
						l-0.44,0.063l0.001-0.476l0.058-31.048l0-0.476l0.44-0.062L79.012,88.197z M78.506,119.299l0.056-30.079l-27.868,3.917
						l-0.056,30.08L78.506,119.299"/>
				</g>
				<g>
					<polygon fill="#B4B4B4" points="49.806,92.302 27.013,79.903 27.453,79.841 50.247,92.24 					"/>
				</g>
				<g>
					<polygon fill="#828282" points="49.806,92.778 27.012,80.378 27.013,79.903 49.806,92.302 					"/>
				</g>
			</g>
		</g>
	</g>
	<g>
		<g>
			<g enable-background="new    ">
				<g>
					<polygon fill="#828282" points="107.271,85.154 84.477,72.754 84.533,42.667 107.326,55.066 					"/>
				</g>
				<g>
					<polygon fill="#B4B4B4" points="107.776,54.043 84.983,41.644 85.432,41.581 108.225,53.98 					"/>
				</g>
				<g>
					<polygon fill="#B4B4B4" points="79.402,89.07 56.609,76.671 84.477,72.754 107.271,85.154 					"/>
				</g>
				<g>
					<polygon fill="#828282" points="78.511,90.155 55.718,77.755 55.719,77.271 78.512,89.671 					"/>
				</g>
				<g>
					<polygon fill="#2678A1" points="79.458,58.983 56.665,46.583 84.533,42.667 107.326,55.066 					"/>
				</g>
				<g>
					<polygon fill="#1B6082" points="79.402,89.07 56.609,76.671 56.665,46.583 79.458,58.983 					"/>
				</g>
				<g>
					<polygon fill="#2E8CBB" points="107.326,55.066 107.271,85.154 79.402,89.07 79.458,58.983 					"/>
				</g>
				<g>
					<polygon fill="#B4B4B4" points="79.011,58.086 56.218,45.687 84.983,41.644 107.776,54.043 					"/>
				</g>
				<g>
					<polygon fill="#828282" points="78.512,89.671 55.719,77.271 55.776,46.233 78.57,58.632 					"/>
				</g>
				<g>
					<path fill="#DFDFDF" d="M107.776,54.043l0.449-0.063l-0.001,0.484l-0.058,31.039l-0.001,0.484l-0.449,0.063l-28.765,4.042
						l-0.44,0.062l0.001-0.484l0.058-31.039l0-0.484l0.441-0.062L107.776,54.043z M107.271,85.154l0.056-30.088l-27.868,3.917
						L79.402,89.07L107.271,85.154"/>
				</g>
				<g>
					<polygon fill="#B4B4B4" points="78.57,58.148 55.777,45.749 56.218,45.687 79.011,58.086 					"/>
				</g>
				<g>
					<polygon fill="#828282" points="78.57,58.632 55.776,46.233 55.777,45.749 78.57,58.148 					"/>
				</g>
			</g>
		</g>
	</g>
	<g>
		<g>
			<g enable-background="new    ">
				<g>
					<polygon fill="#828282" points="78.506,89.194 55.712,76.795 55.769,46.707 78.562,59.106 					"/>
				</g>
				<g>
					<polygon fill="#B4B4B4" points="79.012,58.084 56.219,45.685 56.659,45.623 79.453,58.022 					"/>
				</g>
				<g>
					<polygon fill="#B4B4B4" points="50.638,93.111 27.845,80.711 55.712,76.795 78.506,89.194 					"/>
				</g>
				<g>
					<polygon fill="#828282" points="49.747,94.195 26.954,81.796 26.955,81.312 49.748,93.711 					"/>
				</g>
				<g>
					<polygon fill="#2678A1" points="50.694,63.023 27.9,50.624 55.769,46.707 78.562,59.106 					"/>
				</g>
				<g>
					<polygon fill="#1B6082" points="50.638,93.111 27.845,80.711 27.9,50.624 50.694,63.023 					"/>
				</g>
				<g>
					<path fill="#DFDFDF" d="M79.012,58.084l0.44-0.062l-0.001,0.475l-0.058,31.048l-0.001,0.484l-0.44,0.062l-28.766,4.042
						l-0.44,0.062l0.001-0.484l0.058-31.048l0.001-0.475l0.44-0.062L79.012,58.084z M78.506,89.194l0.056-30.087l-27.868,3.917
						l-0.056,30.088L78.506,89.194"/>
				</g>
				<g>
					<polygon fill="#2E8CBB" points="78.562,59.106 78.506,89.194 50.638,93.111 50.694,63.023 					"/>
				</g>
				<g>
					<polygon fill="#B4B4B4" points="50.247,62.126 27.453,49.727 56.219,45.685 79.012,58.084 					"/>
				</g>
				<g>
					<polygon fill="#828282" points="49.748,93.711 26.955,81.312 27.012,50.264 49.806,62.664 					"/>
				</g>
				<g>
					<polygon fill="#B4B4B4" points="49.807,62.188 27.013,49.789 27.453,49.727 50.247,62.126 					"/>
				</g>
				<g>
					<polygon fill="#828282" points="49.806,62.664 27.012,50.264 27.013,49.789 49.807,62.188 					"/>
				</g>
			</g>
		</g>
	</g>
	<g>
		<g>
			<g enable-background="new    ">
				<g>
					<polygon fill="#828282" points="199.904,19.121 188.508,12.921 188.529,1.085 199.927,7.285 					"/>
				</g>
				<g>
					<polygon fill="#B4B4B4" points="200.369,6.263 188.973,0.063 189.421,0 200.817,6.2 					"/>
				</g>
				<g>
					<polygon fill="#B4B4B4" points="188.946,20.661 177.55,14.461 188.508,12.921 199.904,19.121 					"/>
				</g>
				<g>
					<polygon fill="#828282" points="188.047,21.747 176.65,15.547 176.651,15.063 188.048,21.262 					"/>
				</g>
				<g>
					<polygon fill="#2678A1" points="188.969,8.825 177.572,2.625 188.53,1.085 199.927,7.285 					"/>
				</g>
				<g>
					<polygon fill="#1B6082" points="188.946,20.661 177.55,14.461 177.572,2.625 188.969,8.825 					"/>
				</g>
				<g>
					<polygon fill="#2E8CBB" points="199.927,7.285 199.904,19.121 188.946,20.661 188.969,8.825 					"/>
				</g>
				<g>
					<polygon fill="#B4B4B4" points="188.521,7.928 177.124,1.729 188.973,0.063 200.369,6.263 					"/>
				</g>
				<g>
					<polygon fill="#828282" points="188.048,21.262 176.651,15.063 176.675,2.275 188.071,8.475 					"/>
				</g>
				<g>
					<path fill="#DFDFDF" d="M200.369,6.263l0.448-0.063l-0.001,0.484l-0.023,12.787l-0.001,0.484l-0.448,0.063l-11.849,1.666
						l-0.448,0.063l0.001-0.484l0.023-12.787l0.001-0.484l0.449-0.063L200.369,6.263z M199.904,19.121l0.022-11.836l-10.958,1.54
						l-0.022,11.836L199.904,19.121"/>
				</g>
				<g>
					<polygon fill="#B4B4B4" points="188.072,7.991 176.676,1.792 177.124,1.729 188.521,7.928 					"/>
				</g>
				<g>
					<polygon fill="#828282" points="188.071,8.475 176.675,2.275 176.676,1.792 188.072,7.991 					"/>
				</g>
			</g>
		</g>
	</g>
	<g>
		<g>
			<g enable-background="new    ">
				<g>
					<polygon fill="#828282" points="188.098,20.93 176.701,14.73 176.723,2.903 188.119,9.103 					"/>
				</g>
				<g>
					<polygon fill="#B4B4B4" points="188.569,8.08 177.173,1.88 177.613,1.818 189.01,8.018 					"/>
				</g>
				<g>
					<polygon fill="#B4B4B4" points="177.139,22.47 165.742,16.271 176.701,14.73 188.098,20.93 					"/>
				</g>
				<g>
					<polygon fill="#828282" points="176.248,23.555 164.851,17.355 164.852,16.88 176.248,23.08 					"/>
				</g>
				<g>
					<polygon fill="#2678A1" points="177.16,10.643 165.764,4.443 176.723,2.903 188.119,9.103 					"/>
				</g>
				<g>
					<polygon fill="#1B6082" points="177.139,22.47 165.742,16.271 165.764,4.443 177.16,10.643 					"/>
				</g>
				<g>
					<polygon fill="#2E8CBB" points="188.119,9.103 188.098,20.93 177.139,22.47 177.16,10.643 					"/>
				</g>
				<g>
					<polygon fill="#B4B4B4" points="176.722,9.745 165.325,3.545 177.173,1.88 188.569,8.08 					"/>
				</g>
				<g>
					<polygon fill="#828282" points="176.248,23.08 164.852,16.88 164.876,4.093 176.272,10.292 					"/>
				</g>
				<g>
					<path fill="#DFDFDF" d="M188.569,8.08l0.44-0.062v0.484l-0.024,12.788l-0.001,0.476l-0.44,0.062l-11.848,1.665l-0.448,0.063
						V23.08l0.024-12.787l0.001-0.484l0.448-0.063L188.569,8.08z M188.098,20.93l0.021-11.828l-10.959,1.541l-0.021,11.827
						L188.098,20.93"/>
				</g>
				<g>
					<polygon fill="#B4B4B4" points="176.273,9.808 164.877,3.608 165.325,3.545 176.722,9.745 					"/>
				</g>
				<g>
					<polygon fill="#828282" points="176.272,10.292 164.876,4.093 164.877,3.608 176.273,9.808 					"/>
				</g>
			</g>
		</g>
	</g>
	<g>
		<g>
			<g enable-background="new    ">
				<g>
					<polygon fill="#828282" points="176.604,22.55 165.207,16.35 165.229,4.522 176.626,10.722 					"/>
				</g>
				<g>
					<polygon fill="#B4B4B4" points="177.068,9.692 165.672,3.493 166.12,3.429 177.517,9.629 					"/>
				</g>
				<g>
					<polygon fill="#B4B4B4" points="165.637,24.091 154.24,17.891 165.207,16.35 176.604,22.55 					"/>
				</g>
				<g>
					<polygon fill="#828282" points="164.746,25.176 153.35,18.976 153.351,18.492 164.747,24.691 					"/>
				</g>
				<g>
					<polygon fill="#2678A1" points="165.659,12.263 154.263,6.064 165.229,4.522 176.626,10.722 					"/>
				</g>
				<g>
					<polygon fill="#1B6082" points="165.637,24.091 154.24,17.891 154.263,6.064 165.659,12.263 					"/>
				</g>
				<g>
					<polygon fill="#2E8CBB" points="176.626,10.722 176.604,22.55 165.637,24.091 165.659,12.263 					"/>
				</g>
				<g>
					<polygon fill="#B4B4B4" points="165.221,11.357 153.823,5.158 165.672,3.493 177.068,9.692 					"/>
				</g>
				<g>
					<polygon fill="#828282" points="164.747,24.691 153.351,18.492 153.374,5.705 164.771,11.904 					"/>
				</g>
				<g>
					<path fill="#DFDFDF" d="M177.068,9.692l0.448-0.063l-0.001,0.484L177.492,22.9l-0.001,0.484l-0.448,0.063l-11.849,1.665
						l-0.448,0.063l0.001-0.484l0.023-12.787l0.001-0.484l0.449-0.063L177.068,9.692z M176.604,22.55l0.022-11.828l-10.967,1.541
						l-0.022,11.828L176.604,22.55"/>
				</g>
				<g>
					<polygon fill="#B4B4B4" points="164.771,11.42 153.375,5.221 153.823,5.158 165.221,11.357 					"/>
				</g>
				<g>
					<polygon fill="#828282" points="164.771,11.904 153.374,5.705 153.375,5.221 164.771,11.42 					"/>
				</g>
			</g>
		</g>
	</g>
	<g>
		<g>
			<g enable-background="new    ">
				<g>
					<polygon fill="#828282" points="187.899,46.751 176.502,40.552 176.524,28.724 187.921,34.924 					"/>
				</g>
				<g>
					<polygon fill="#B4B4B4" points="188.371,33.901 176.975,27.702 177.415,27.64 188.813,33.839 					"/>
				</g>
				<g>
					<polygon fill="#B4B4B4" points="176.94,48.292 165.544,42.092 176.502,40.552 187.899,46.751 					"/>
				</g>
				<g>
					<polygon fill="#828282" points="176.05,49.376 164.652,43.176 164.653,42.701 176.051,48.901 					"/>
				</g>
				<g>
					<polygon fill="#2678A1" points="176.962,36.464 165.565,30.265 176.524,28.724 187.921,34.924 					"/>
				</g>
				<g>
					<polygon fill="#1B6082" points="176.94,48.292 165.544,42.092 165.565,30.265 176.962,36.464 					"/>
				</g>
				<g>
					<path fill="#DFDFDF" d="M188.371,33.901l0.441-0.062l-0.001,0.484l-0.024,12.788l-0.001,0.475l-0.44,0.062l-11.855,1.666
						l-0.44,0.062l0.001-0.475l0.023-12.787l0.001-0.484l0.44-0.062L188.371,33.901z M187.899,46.751l0.021-11.828l-10.959,1.541
						l-0.021,11.827L187.899,46.751"/>
				</g>
				<g>
					<polygon fill="#2E8CBB" points="187.921,34.924 187.899,46.751 176.94,48.292 176.962,36.464 					"/>
				</g>
				<g>
					<polygon fill="#B4B4B4" points="176.516,35.567 165.119,29.368 176.975,27.702 188.371,33.901 					"/>
				</g>
				<g>
					<polygon fill="#828282" points="176.051,48.901 164.653,42.701 164.678,29.914 176.074,36.114 					"/>
				</g>
				<g>
					<polygon fill="#B4B4B4" points="176.075,35.629 164.679,29.43 165.119,29.368 176.516,35.567 					"/>
				</g>
				<g>
					<polygon fill="#828282" points="176.074,36.114 164.678,29.914 164.679,29.43 176.075,35.629 					"/>
				</g>
			</g>
		</g>
	</g>
	<g>
		<g>
			<g enable-background="new    ">
				<g>
					<polygon fill="#828282" points="175.894,61.682 164.497,55.482 164.519,43.655 175.915,49.854 					"/>
				</g>
				<g>
					<polygon fill="#B4B4B4" points="176.365,48.832 164.969,42.632 165.409,42.57 176.807,48.77 					"/>
				</g>
				<g>
					<polygon fill="#B4B4B4" points="164.935,63.222 153.538,57.023 164.497,55.482 175.894,61.682 					"/>
				</g>
				<g>
					<polygon fill="#828282" points="164.044,64.307 152.646,58.107 152.647,57.632 164.045,63.832 					"/>
				</g>
				<g>
					<polygon fill="#2678A1" points="164.957,51.395 153.56,45.195 164.519,43.655 175.915,49.854 					"/>
				</g>
				<g>
					<polygon fill="#1B6082" points="164.935,63.222 153.538,57.023 153.56,45.195 164.957,51.395 					"/>
				</g>
				<g>
					<path fill="#DFDFDF" d="M176.365,48.832l0.441-0.062l-0.001,0.476l-0.024,12.796l-0.001,0.476l-0.44,0.062l-11.855,1.666
						l-0.44,0.062l0.001-0.476l0.023-12.796l0.001-0.476l0.44-0.062L176.365,48.832z M175.894,61.682l0.021-11.828l-10.958,1.541
						l-0.022,11.827L175.894,61.682"/>
				</g>
				<g>
					<polygon fill="#2E8CBB" points="175.915,49.854 175.894,61.682 164.935,63.222 164.957,51.395 					"/>
				</g>
				<g>
					<polygon fill="#B4B4B4" points="164.51,50.498 153.113,44.298 164.969,42.632 176.365,48.832 					"/>
				</g>
				<g>
					<polygon fill="#828282" points="164.045,63.832 152.647,57.632 152.672,44.836 164.068,51.036 					"/>
				</g>
				<g>
					<polygon fill="#B4B4B4" points="164.069,50.56 152.673,44.36 153.113,44.298 164.51,50.498 					"/>
				</g>
				<g>
					<polygon fill="#828282" points="164.068,51.036 152.672,44.836 152.673,44.36 164.069,50.56 					"/>
				</g>
			</g>
		</g>
	</g>
	<g>
		<g>
			<g enable-background="new    ">
				<g>
					<polygon fill="#828282" points="30.976,221.861 19.579,215.662 19.617,195.491 31.013,201.691 					"/>
				</g>
				<g>
					<polygon fill="#B4B4B4" points="31.464,200.667 20.067,194.468 20.508,194.406 31.904,200.606 					"/>
				</g>
				<g>
					<polygon fill="#B4B4B4" points="12.288,224.488 0.891,218.289 19.579,215.662 30.976,221.861 					"/>
				</g>
				<g>
					<polygon fill="#828282" points="11.396,225.573 0,219.373 0.001,218.897 11.397,225.097 					"/>
				</g>
				<g>
					<polygon fill="#2678A1" points="12.325,204.317 0.928,198.117 19.617,195.491 31.013,201.69 					"/>
				</g>
				<g>
					<polygon fill="#1B6082" points="12.288,224.488 0.891,218.289 0.928,198.117 12.325,204.317 					"/>
				</g>
				<g>
					<polygon fill="#2E8CBB" points="31.013,201.69 30.976,221.861 12.288,224.488 12.325,204.317 					"/>
				</g>
				<g>
					<polygon fill="#B4B4B4" points="11.878,203.42 0.481,197.22 20.067,194.468 31.464,200.667 					"/>
				</g>
				<g>
					<polygon fill="#828282" points="11.397,225.097 0.001,218.897 0.04,197.758 11.437,203.958 					"/>
				</g>
				<g>
					<path fill="#DFDFDF" d="M31.464,200.667l0.44-0.062l-0.001,0.476l-0.039,21.139l-0.001,0.476l-0.44,0.063l-19.585,2.752
						l-0.441,0.063l0.001-0.476l0.039-21.14l0.001-0.476l0.441-0.062L31.464,200.667z M30.976,221.861l0.037-20.17l-18.688,2.626
						l-0.038,20.171L30.976,221.861"/>
				</g>
				<g>
					<polygon fill="#B4B4B4" points="11.438,203.482 0.041,197.283 0.481,197.22 11.878,203.42 					"/>
				</g>
				<g>
					<polygon fill="#828282" points="11.437,203.958 0.04,197.758 0.041,197.283 11.438,203.482 					"/>
				</g>
			</g>
		</g>
	</g>
	<g>
		<g>
			<g enable-background="new    ">
				<g>
					<polygon fill="#828282" points="270.693,183.916 250.18,172.756 250.244,137.689 270.758,148.848 					"/>
				</g>
				<g>
					<polygon fill="#B4B4B4" points="271.201,147.827 250.687,136.667 251.136,136.604 271.649,147.763 					"/>
				</g>
				<g>
					<polygon fill="#B4B4B4" points="238.203,188.482 217.689,177.323 250.18,172.756 270.693,183.916 					"/>
				</g>
				<g>
					<polygon fill="#828282" points="237.312,189.567 216.798,178.408 216.799,177.923 237.313,189.083 					"/>
				</g>
				<g>
					<polygon fill="#2678A1" points="238.268,153.415 217.754,142.255 250.244,137.689 270.758,148.848 					"/>
				</g>
				<g>
					<polygon fill="#1B6082" points="238.203,188.482 217.689,177.323 217.754,142.255 238.268,153.415 					"/>
				</g>
				<g>
					<polygon fill="#2E8CBB" points="270.758,148.848 270.693,183.916 238.203,188.482 238.268,153.415 					"/>
				</g>
				<g>
					<polygon fill="#B4B4B4" points="237.829,152.517 217.315,141.357 250.687,136.667 271.201,147.827 					"/>
				</g>
				<g>
					<polygon fill="#828282" points="237.313,189.083 216.799,177.923 216.866,141.905 237.38,153.064 					"/>
				</g>
				<g>
					<path fill="#DFDFDF" d="M271.201,147.827l0.448-0.063l-0.001,0.484l-0.067,36.019l-0.001,0.484l-0.448,0.063l-33.371,4.689
						l-0.449,0.063l0.001-0.484l0.067-36.019l0.001-0.484l0.448-0.063L271.201,147.827z M270.693,183.916l0.064-35.067l-32.49,4.566
						l-0.064,35.067L270.693,183.916"/>
				</g>
				<g>
					<polygon fill="#B4B4B4" points="237.381,152.58 216.867,141.42 217.315,141.357 237.829,152.517 					"/>
				</g>
				<g>
					<polygon fill="#828282" points="237.38,153.064 216.866,141.905 216.867,141.42 237.381,152.58 					"/>
				</g>
			</g>
		</g>
	</g>
</g>
<g id="Ebene_2">
</g>
</svg>
