<?xml version="1.0" encoding="utf-8"?>
<!-- Generator: Adobe Illustrator 15.0.3, SVG Export Plug-In . SVG Version: 6.00 Build 0)  -->
<!DOCTYPE svg PUBLIC "-//W3C//DTD SVG 1.1//EN" "http://www.w3.org/Graphics/SVG/1.1/DTD/svg11.dtd">
<svg version="1.1" id="Ebene_1" xmlns="http://www.w3.org/2000/svg" xmlns:xlink="http://www.w3.org/1999/xlink" x="0px" y="0px"
	 width="686px" height="312px" viewBox="0 0 686 312" enable-background="new 0 0 686 312" xml:space="preserve">
<rect x="3.172" y="216" fill="none" width="107.656" height="14"/>
<g>
	<g>
		<g>
			<circle fill="#C0C0C0" cx="130.323" cy="110.626" r="92.833"/>
			<path fill="#C0C0C0" d="M575.156,132.459c0,6.627-5.658,12-12.639,12H132.795c-6.979,0-12.639-5.373-12.639-12v-47
				c0-6.627,5.659-12,12.639-12h429.723c6.98,0,12.639,5.373,12.639,12V132.459z"/>
		</g>
		<rect x="309.99" y="96.959" fill="none" width="135.334" height="27.334"/>
		<text transform="matrix(1 0 0 1 309.9902 109.7393)" font-family="'MyriadPro-Regular'" font-size="18">ID:#937234</text>
	</g>
	<g>
		<circle fill="#A4A4A4" cx="130.284" cy="110.411" r="84.785"/>
		<path fill="#A4A4A4" d="M569.884,127.156c0,5.057-5.168,9.156-11.543,9.156H165.874c-6.375,0-11.543-4.1-11.543-9.156V91.292
			c0-5.058,5.168-9.157,11.543-9.157h392.467c6.375,0,11.543,4.1,11.543,9.157V127.156z"/>
		<circle fill="#FFFFFF" cx="88.655" cy="109.625" r="29.451"/>
	</g>
</g>
<rect x="-30.339" y="204.959" fill="none" width="107.656" height="14"/>
<rect x="309.489" y="97.295" fill="none" width="135.334" height="27.334"/>
<text transform="matrix(1 0 0 1 309.4893 114.334)" font-family="'MyriadPro-Regular'" font-size="24">ID:#937234</text>
<path fill="#A4A4A4" d="M290.843,144.441v57.699c0,4.248-7.494,7.693-16.737,7.693h-1.858c-9.244,0-16.738-3.445-16.738-7.693
	v-57.699"/>
<path fill="#A4A4A4" d="M340.301,144.459v63.197c0,4.654-7.493,8.428-16.737,8.428h-1.858c-9.243,0-16.737-3.773-16.737-8.428
	v-63.197"/>
<path fill="#A4A4A4" d="M397.853,144.439v37.186c0,2.738-7.492,4.959-16.736,4.959h-1.859c-9.243,0-16.736-2.221-16.736-4.959
	v-37.186"/>
<path fill="#A4A4A4" d="M537.196,144.418v51.91c0,3.824-7.493,6.924-16.736,6.924h-1.859c-9.244,0-16.737-3.1-16.737-6.924v-51.91"
	/>
<rect x="203.656" y="200.959" transform="matrix(0.004 1 -1 0.004 528.7871 -56.3009)" fill="none" width="177.999" height="72.668"/>
<rect x="261.655" y="199.292" transform="matrix(0.004 1 -1 0.004 584.8909 -115.9604)" fill="none" width="178.001" height="72.668"/>
<rect x="400.989" y="208.292" transform="matrix(0.004 1 -1 0.004 732.6697 -246.3297)" fill="none" width="178.001" height="72.668"/>
</svg>
