<?xml version="1.0" encoding="utf-8"?>
<!-- Generator: Adobe Illustrator 15.0.3, SVG Export Plug-In . SVG Version: 6.00 Build 0)  -->
<!DOCTYPE svg PUBLIC "-//W3C//DTD SVG 1.1//EN" "http://www.w3.org/Graphics/SVG/1.1/DTD/svg11.dtd">
<svg version="1.1" id="Ebene_1" xmlns="http://www.w3.org/2000/svg" xmlns:xlink="http://www.w3.org/1999/xlink" x="0px" y="0px"
	 width="686px" height="312px" viewBox="0 0 686 312" enable-background="new 0 0 686 312" xml:space="preserve">
<polyline fill="none" points="4.173,243.008 111.829,243.008 111.829,257.008 4.173,257.008 "/>
<polyline fill="none" points="735.854,286.197 663.187,286.484 662.481,108.486 735.148,108.198 "/>
<polyline fill="none" points="-29.338,231.967 78.318,231.967 78.318,245.967 -29.338,245.967 "/>
<path fill="#81E2DB" d="M561.519,101.404c6.98,0,12.639,5.373,12.639,12v47c0,6.627-5.658,12-12.639,12h-25.321v51.869
	c0,3.824-7.493,6.924-16.736,6.924h-1.859c-9.244,0-16.737-3.1-16.737-6.924v-51.869H396.854v39.07
	c0,2.879-7.492,5.213-16.736,5.213h-1.859c-9.243,0-16.736-2.334-16.736-5.213v-39.07h-22.22v63.197
	c0,4.654-7.493,8.428-16.737,8.428h-1.858c-9.243,0-16.737-3.773-16.737-8.428v-63.197h-14.125v59.365
	c0,4.372-7.494,7.918-16.737,7.918h-1.858c-9.244,0-16.738-3.546-16.738-7.918v-59.365H221v81.533c0,6.627,5.373,12,12,12h352
	c6.627,0,12-5.373,12-12v-198c0-6.627-5.373-12-12-12H233c-6.627,0-12,5.373-12,12v45.467H561.519z"/>
<rect x="113.191" y="138.902" fill="none" width="107.656" height="14"/>
<polyline fill="none" points="-26.339,230.051 81.317,230.051 81.317,244.051 -26.339,244.051 "/>
<rect x="313.489" y="122.387" fill="none" width="135.334" height="27.334"/>
<g>
	<g>
		<g>
			<circle fill="#C0C0C0" cx="129.324" cy="138.634" r="92.833"/>
			<path fill="#C0C0C0" d="M574.157,160.467c0,6.627-5.658,12-12.639,12H131.796c-6.979,0-12.639-5.373-12.639-12v-47
				c0-6.627,5.659-12,12.639-12h429.723c6.98,0,12.639,5.373,12.639,12V160.467z"/>
		</g>
		<rect x="308.991" y="124.967" fill="none" width="135.334" height="27.334"/>
		<text transform="matrix(1 0 0 1 308.9912 137.7471)" font-family="'MyriadPro-Regular'" font-size="18">ID:#937234</text>
	</g>
	<g>
		<circle fill="#A4A4A4" cx="129.285" cy="138.419" r="84.785"/>
		<path fill="#A4A4A4" d="M568.885,155.164c0,5.057-5.168,9.156-11.543,9.156H164.875c-6.375,0-11.543-4.1-11.543-9.156V119.3
			c0-5.058,5.168-9.157,11.543-9.157h392.467c6.375,0,11.543,4.1,11.543,9.157V155.164z"/>
		<circle fill="#FFFFFF" cx="87.656" cy="137.633" r="29.451"/>
	</g>
</g>
<rect x="308.49" y="125.303" fill="none" width="135.334" height="27.334"/>
<text transform="matrix(1 0 0 1 308.4902 142.3418)" font-family="'MyriadPro-Regular'" font-size="24">ID:#937234</text>
<path fill="#3FD13F" d="M289.844,172.449v59.383c0,4.372-7.494,7.918-16.737,7.918h-1.858c-9.244,0-16.738-3.546-16.738-7.918
	v-59.383"/>
<path fill="#E59E2C" d="M339.302,172.467v63.197c0,4.654-7.493,8.428-16.737,8.428h-1.858c-9.243,0-16.737-3.773-16.737-8.428
	v-63.197"/>
<path fill="#A772ED" d="M396.854,172.447v39.09c0,2.879-7.492,5.213-16.736,5.213h-1.859c-9.243,0-16.736-2.334-16.736-5.213v-39.09
	"/>
<path fill="#269DC6" d="M536.197,172.426v51.91c0,3.824-7.493,6.924-16.736,6.924h-1.859c-9.244,0-16.737-3.1-16.737-6.924v-51.91"
	/>
<rect x="152.991" y="228.466" transform="matrix(0.004 1 -1 0.004 505.8281 21.7611)" fill="none" width="177.999" height="72.668"/>
<text transform="matrix(0.0133 0.9999 -0.9999 0.0133 265.7686 175.8076)" font-family="'Calibri-Bold'" font-size="18">polygon</text>
<rect x="202.657" y="228.967" transform="matrix(0.004 1 -1 0.004 555.7997 -27.4051)" fill="none" width="177.999" height="72.668"/>
<text transform="matrix(0.0133 0.9999 -0.9999 0.0133 315.4346 176.3076)" font-family="'Calibri-Bold'" font-size="18">position</text>
<rect x="260.656" y="227.3" transform="matrix(0.004 1 -1 0.004 611.9034 -87.0645)" fill="none" width="178.001" height="72.668"/>
<text transform="matrix(0.0133 0.9999 -0.9999 0.0133 373.4346 174.6411)" font-family="'Calibri-Bold'" font-size="18">color</text>
<rect x="399.99" y="234.3" transform="matrix(0.004 1 -1 0.004 757.6823 -219.4261)" fill="none" width="178.001" height="72.668"/>
<text transform="matrix(0.0133 0.9999 -0.9999 0.0133 512.7646 181.6411)" font-family="'Calibri-Bold'" font-size="18">text</text>
</svg>
