<?xml version="1.0" encoding="utf-8"?>
<!-- Generator: Adobe Illustrator 15.0.3, SVG Export Plug-In . SVG Version: 6.00 Build 0)  -->
<!DOCTYPE svg PUBLIC "-//W3C//DTD SVG 1.1//EN" "http://www.w3.org/Graphics/SVG/1.1/DTD/svg11.dtd">
<svg version="1.1" id="Ebene_1" xmlns="http://www.w3.org/2000/svg" xmlns:xlink="http://www.w3.org/1999/xlink" x="0px" y="0px"
	 width="376px" height="222px" viewBox="0 0 376 222" enable-background="new 0 0 376 222" xml:space="preserve">
<path fill="#81E2DB" d="M140.521,128.467h-22.22H82.969H68.844H33.51H0V210c0,6.627,5.373,12,12,12h352c6.627,0,12-5.373,12-12V12
	c0-6.627-5.373-12-12-12H12C5.373,0,0,5.373,0,12v45.467h340.519c6.98,0,12.639,5.373,12.639,12v47c0,6.627-5.658,12-12.639,12
	h-25.321v51.869c0,3.824-7.493,6.924-16.736,6.924h-1.859c-9.244,0-16.737-3.1-16.737-6.924v-51.869H175.854H140.521z"/>
<rect x="179.02" y="189.4" transform="matrix(0.004 1 -1 0.004 492.689 -43.1804)" fill="none" width="178.001" height="72.668"/>
<text transform="matrix(0.0133 0.9999 -0.9999 0.0133 291.7959 136.7407)" font-family="'Calibri-Bold'" font-size="18">text</text>
</svg>
