<?xml version="1.0" encoding="utf-8"?>
<!-- Generator: Adobe Illustrator 15.0.3, SVG Export Plug-In . SVG Version: 6.00 Build 0)  -->
<!DOCTYPE svg PUBLIC "-//W3C//DTD SVG 1.1//EN" "http://www.w3.org/Graphics/SVG/1.1/DTD/svg11.dtd">
<svg version="1.1" id="Ebene_1" xmlns="http://www.w3.org/2000/svg" xmlns:xlink="http://www.w3.org/1999/xlink" x="0px" y="0px"
	 width="900.488px" height="700.543px" viewBox="0 0 900.488 700.543" enable-background="new 0 0 900.488 700.543"
	 xml:space="preserve">
<path fill="#70E09D" d="M893.75,0.016V0H450.488v124.762v96.687V350h175.914c-12.57-46.311-34.432-16.885-43.695-66.707
	c-7.725-41.551,49.791-69.658,92.314-69.667c42.524,0.008,100.042,28.115,92.315,69.667c-9.262,49.822-31.121,20.4-43.691,66.707
	h176.844V6.515C900.354,2.905,897.395,0.016,893.75,0.016z"/>
<path fill="#70E09D" d="M450,123.675c-47.885-12.52-17.588-34.654-67.803-43.99c-41.551-7.725-69.658,49.791-69.666,92.314
	c0.008,42.523,28.115,100.04,69.666,92.314c50.215-9.336,19.918-31.47,67.803-43.99l0.006,0.125v-96.687L450,123.675z"/>
<path fill="#F2647F" d="M900.003,693.793h0.003v-343.25H722.75c12.498-48.518,34.739-17.88,44.104-68.25
	c7.726-41.552-49.792-69.659-92.315-69.667c-42.523,0.008-100.039,28.115-92.313,69.667c9.356,50.331,31.573,19.774,44.077,68.135
	c0.01,0.038,0.02,0.077,0.029,0.115H450.006v130.343c47.885-12.52,17.588-34.653,67.801-43.989
	c41.553-7.727,69.658,49.791,69.668,92.314c-0.01,42.523-28.115,100.039-69.668,92.314c-50.213-9.336-19.916-31.471-67.801-43.99
	v123.008h443.247h0.001C896.981,700.543,900.003,697.521,900.003,693.793z"/>
<path fill="#F7BC46" d="M450,350.542H274.086c12.569,46.312,34.432,16.885,43.693,66.708c7.727,41.551-49.789,69.658-92.313,69.666
	c-42.524-0.008-100.042-28.115-92.316-69.666c9.263-49.822,31.123-20.4,43.692-66.708H0v343.27h0.024
	c0,3.597,2.816,6.529,6.363,6.73H450V575.781v-96.688V350.542z"/>
<path fill="#F7BC46" d="M517.807,435.229c-50.213,9.336-19.916,31.471-67.801,43.99L450,479.094v96.688l0.006,0.086
	c47.885,12.52,17.588,34.654,67.801,43.99c41.553,7.725,69.658-49.791,69.668-92.314
	C587.465,485.02,559.359,427.503,517.807,435.229z"/>
<path fill="#CB90F4" d="M382.686,79.018c50.214,9.336,19.917,31.47,67.802,43.99V0H7.154c-3.589,0.036-6.5,2.872-6.666,6.428V350
	h177.256c-12.499,48.518-34.74,17.88-44.105,68.25c-7.726,41.551,49.792,69.658,92.315,69.666
	c42.523-0.008,100.039-28.115,92.313-69.666c-9.357-50.331-31.573-19.774-44.077-68.135c-0.01-0.038-0.019-0.077-0.029-0.115
	h176.326V219.657c-47.885,12.52-17.588,34.654-67.802,43.99c-41.552,7.726-69.658-49.791-69.667-92.314
	C313.028,128.809,341.134,71.292,382.686,79.018z"/>
</svg>
